# File created by Blade
# Date/Time:  Thu Jan 22 16:10:14 2015
# Frame Rate: 120.000 fps
#------------------------------------------------------
:FULLY-SPECIFIED
:DEGREES
2283
root 11.540596 27.165578 0.196897 65.047576 32.897635 11.605709
RightUpLeg -30.339644 -57.593913 -17.701421
RightLeg -5.494966 -0.000000 0.000000
RightFoot -8.297474 -30.198705 52.373630
RightToeBase 13.550442 -0.000000 -0.000000
LeftUpLeg -109.393867 -3.897403 -13.423443
LeftLeg 87.079366 -0.000000 -0.000000
LeftFoot -36.097212 3.307190 -17.018901
LeftToeBase 3.559516 -0.000000 -0.000000
Spine 62.665736 30.839089 7.267552
RightShoulder 6.029186 -3.792173 -50.681590
RightArm 27.507205 21.523612 37.885331
RightForeArm -23.485542 -0.000000 39.597433
RightHand 30.111296 -0.000000 -65.058443
RightHandThumb1 -24.326973 -0.000000 -32.862282
LeftShoulder -54.993423 49.073867 -13.151889
LeftArm 9.802640 -15.111417 -73.095837
LeftForeArm -12.311046 -0.000000 -1.619918
LeftHand -35.036237 0.000000 33.657209
LeftHandThumb1 -26.253704 0.000000 33.147579
Head 13.997278 -19.418892 -22.965809
2284
root 11.535903 27.165802 0.195075 65.060550 32.908923 11.608560
RightUpLeg -30.288694 -57.549239 -17.746967
RightLeg -5.509965 -0.000000 0.000000
RightFoot -8.354405 -30.193849 52.463073
RightToeBase 13.556755 -0.000000 -0.000000
LeftUpLeg -109.404066 -3.903302 -13.419423
LeftLeg 87.061472 -0.000000 -0.000000
LeftFoot -36.109822 3.301989 -17.026600
LeftToeBase 3.686432 -0.000000 -0.000000
Spine 62.626764 30.782807 7.239705
RightShoulder 6.149072 -3.684060 -50.764506
RightArm 27.279822 21.503957 37.879636
RightForeArm -23.521431 -0.000000 39.766072
RightHand 30.002998 -0.000000 -64.975117
RightHandThumb1 -24.326973 -0.000000 -32.862282
LeftShoulder -54.896903 49.021861 -13.119406
LeftArm 10.056097 -14.914625 -73.203922
LeftForeArm -12.353511 -0.000000 -1.673729
LeftHand -34.971068 -0.000000 33.058206
LeftHandThumb1 -26.253704 0.000000 33.147579
Head 13.960985 -19.320106 -23.045721
2285
root 11.531491 27.167395 0.192399 65.082688 32.917197 11.615923
RightUpLeg -30.255638 -57.506915 -17.787918
RightLeg -5.515115 -0.000000 0.000000
RightFoot -8.401738 -30.218452 52.507270
RightToeBase 13.538568 -0.000000 -0.000000
LeftUpLeg -109.414974 -3.912660 -13.420731
LeftLeg 87.035451 -0.000000 -0.000000
LeftFoot -36.114177 3.329055 -17.002464
LeftToeBase 3.592267 -0.000000 -0.000000
Spine 62.606548 30.734395 7.230476
RightShoulder 6.231286 -3.627859 -50.854245
RightArm 27.079607 21.472979 37.845668
RightForeArm -23.510502 -0.000000 39.928786
RightHand 29.908583 -0.000000 -64.927984
RightHandThumb1 -24.326973 -0.000000 -32.862282
LeftShoulder -54.750620 48.936054 -13.033261
LeftArm 10.301160 -14.715230 -73.279611
LeftForeArm -12.525636 -0.000000 -1.708400
LeftHand -34.882867 0.000000 32.954608
LeftHandThumb1 -26.253704 0.000000 33.147579
Head 13.897032 -19.261695 -23.119335
2286
root 11.527653 27.169847 0.189604 65.114736 32.927827 11.641867
RightUpLeg -30.234319 -57.500083 -17.819868
RightLeg -5.513541 -0.000000 0.000000
RightFoot -8.428645 -30.192251 52.549155
RightToeBase 13.560082 -0.000000 -0.000000
LeftUpLeg -109.415933 -3.939597 -13.421500
LeftLeg 86.999288 -0.000000 -0.000000
LeftFoot -36.128416 3.330649 -17.011671
LeftToeBase 3.747141 -0.000000 -0.000000
Spine 62.602746 30.668332 7.237890
RightShoulder 6.314922 -3.591884 -50.956713
RightArm 26.864203 21.443595 37.783043
RightForeArm -23.413299 -0.000000 40.087562
RightHand 29.896717 -0.000000 -64.929814
RightHandThumb1 -24.326973 -0.000000 -32.862282
LeftShoulder -54.621485 48.870592 -12.993977
LeftArm 10.550760 -14.752772 -73.372858
LeftForeArm -12.566596 -0.000000 -1.589360
LeftHand -34.969345 -0.000000 32.713969
LeftHandThumb1 -26.253704 0.000000 33.147579
Head 13.806378 -19.175106 -23.171478
2287
root 11.524854 27.172827 0.183692 65.185937 32.950151 11.722357
RightUpLeg -30.153365 -57.511501 -17.924517
RightLeg -5.520350 -0.000000 0.000000
RightFoot -8.491976 -30.190518 52.645601
RightToeBase 13.545802 -0.000000 -0.000000
LeftUpLeg -109.414898 -4.021749 -13.423404
LeftLeg 86.948394 -0.000000 -0.000000
LeftFoot -36.115822 3.347671 -17.023304
LeftToeBase 3.718083 -0.000000 -0.000000
Spine 62.588898 30.564147 7.244403
RightShoulder 6.356722 -3.599151 -51.038751
RightArm 26.709784 21.447355 37.729927
RightForeArm -23.380587 -0.000000 40.246834
RightHand 29.879387 0.000000 -64.883925
RightHandThumb1 -24.326973 -0.000000 -32.862282
LeftShoulder -54.449323 48.809233 -12.927817
LeftArm 10.811580 -14.677836 -73.433080
LeftForeArm -12.685529 -0.000000 -1.526560
LeftHand -35.008448 -0.000000 32.423447
LeftHandThumb1 -26.253704 0.000000 33.147579
Head 13.719135 -19.135260 -23.233999
2288
root 11.516962 27.179295 0.182154 65.254198 32.937681 11.724990
RightUpLeg -30.201627 -57.430172 -17.924472
RightLeg -5.515481 -0.000000 0.000000
RightFoot -8.569146 -30.215999 52.659622
RightToeBase 13.574349 -0.000000 -0.000000
LeftUpLeg -109.468083 -4.019604 -13.434974
LeftLeg 86.906200 -0.000000 -0.000000
LeftFoot -36.103731 3.341119 -17.035128
LeftToeBase 3.747505 -0.000000 -0.000000
Spine 62.542882 30.600378 7.190008
RightShoulder 6.354439 -3.578998 -50.952795
RightArm 26.568074 21.422095 37.566176
RightForeArm -23.392885 0.000000 40.395551
RightHand 29.770164 -0.000000 -64.761585
RightHandThumb1 -24.326973 -0.000000 -32.862282
LeftShoulder -54.205721 48.714240 -12.686973
LeftArm 10.967748 -14.608943 -73.509341
LeftForeArm -12.722680 -0.000000 -1.393254
LeftHand -34.976991 0.000000 31.998549
LeftHandThumb1 -26.253704 0.000000 33.147579
Head 13.629581 -19.215316 -23.233017
